<svg width="225" height="54" viewBox="0 0 225 54" fill="none" xmlns="http://www.w3.org/2000/svg">
<path d="M58.293 23.5782C57.321 23.5782 56.5488 23.3946 55.9764 23.0274C55.4148 22.6602 55.0206 22.1526 54.7938 21.5046C54.567 20.8458 54.4536 20.0844 54.4536 19.2204V14.5062C54.4536 13.599 54.567 12.8214 54.7938 12.1734C55.0206 11.5146 55.4148 11.007 55.9764 10.6506C56.5488 10.2942 57.321 10.116 58.293 10.116C59.2326 10.116 59.967 10.2726 60.4962 10.5858C61.0362 10.899 61.4142 11.3418 61.6302 11.9142C61.857 12.4866 61.9704 13.1508 61.9704 13.9068V15.0084H59.3784V13.7772C59.3784 13.4748 59.3622 13.194 59.3298 12.9348C59.2974 12.6648 59.2056 12.4488 59.0544 12.2868C58.914 12.114 58.6656 12.0276 58.3092 12.0276C57.9528 12.0276 57.6936 12.114 57.5316 12.2868C57.3696 12.4596 57.267 12.6864 57.2238 12.9672C57.1806 13.2372 57.159 13.5396 57.159 13.8744V19.836C57.159 20.2032 57.186 20.5272 57.24 20.808C57.3048 21.078 57.4182 21.2886 57.5802 21.4398C57.753 21.5802 57.996 21.6504 58.3092 21.6504C58.6548 21.6504 58.8978 21.5694 59.0382 21.4074C59.1894 21.2346 59.2812 21.0078 59.3136 20.727C59.3568 20.4462 59.3784 20.1492 59.3784 19.836V18.5562H61.9704V19.6416C61.9704 20.4084 61.8624 21.0888 61.6464 21.6828C61.4304 22.266 61.0578 22.7304 60.5286 23.076C59.9994 23.4108 59.2542 23.5782 58.293 23.5782Z" fill="#2C2C2C"/>
<path d="M63.6023 23.4V10.278H71.3135V23.4H68.6891V12.1896H66.2267V23.4H63.6023Z" fill="#2C2C2C"/>
<path d="M73.2843 23.4V10.278H79.0029V12.1248H75.9573V15.6078H78.3063V17.4708H75.9573V21.5856H79.0353V23.4H73.2843Z" fill="#2C2C2C"/>
<path d="M87.9854 26.1378L87.6615 23.4H80.42V10.278H83.0931V21.5856H85.6203V10.278H88.2933V21.5856H89.9619V26.1378H87.9854Z" fill="#2C2C2C"/>
<path d="M91.3044 23.4V10.278H93.4428V18.135L96.9096 10.278H98.6592V23.4H96.4884V15.4134L92.9892 23.4H91.3044Z" fill="#2C2C2C"/>
<path d="M100.021 23.4L102.565 10.278H105.529L108.056 23.4H105.578L105.108 20.5164H103.034L102.532 23.4H100.021ZM103.277 18.8802H104.849L104.055 13.5828L103.277 18.8802Z" fill="#2C2C2C"/>
<path d="M108.495 23.4V21.5046C108.83 21.5046 109.105 21.483 109.321 21.4398C109.548 21.3858 109.726 21.2724 109.856 21.0996C109.996 20.916 110.11 20.6406 110.196 20.2734C110.283 19.8954 110.353 19.3932 110.407 18.7668C110.472 18.1404 110.536 17.3466 110.601 16.3854L111.039 10.278H117.729V23.4H115.072V12.3192H113.436L113.161 16.8066C113.096 17.8434 113.02 18.7452 112.934 19.512C112.858 20.268 112.734 20.9052 112.561 21.4236C112.399 21.942 112.156 22.3578 111.832 22.671C111.519 22.9734 111.093 23.184 110.553 23.3028C110.013 23.4108 109.327 23.4432 108.495 23.4Z" fill="#2C2C2C"/>
<path d="M119.781 23.4V10.278H121.919V18.135L125.386 10.278H127.136V23.4H124.965V15.4134L121.466 23.4H119.781Z" fill="#2C2C2C"/>
<path d="M132.37 23.6268C131.506 23.6268 130.814 23.4648 130.296 23.1408C129.778 22.806 129.405 22.3416 129.178 21.7476C128.962 21.1428 128.854 20.4516 128.854 19.674V19.2042H131.365C131.365 19.2366 131.365 19.3068 131.365 19.4148C131.365 19.512 131.365 19.6038 131.365 19.6902C131.365 20.3274 131.435 20.7918 131.576 21.0834C131.727 21.375 132.008 21.5208 132.418 21.5208C132.699 21.5208 132.91 21.4506 133.05 21.3102C133.201 21.159 133.304 20.9484 133.358 20.6784C133.412 20.3976 133.439 20.052 133.439 19.6416C133.439 18.9828 133.331 18.4698 133.115 18.1026C132.899 17.7354 132.456 17.541 131.786 17.5194C131.776 17.5086 131.727 17.5032 131.641 17.5032C131.565 17.5032 131.479 17.5032 131.381 17.5032C131.284 17.5032 131.192 17.5032 131.106 17.5032V15.8184C131.182 15.8184 131.252 15.8184 131.317 15.8184C131.392 15.8184 131.462 15.8184 131.527 15.8184C131.603 15.8184 131.673 15.8184 131.738 15.8184C132.407 15.7968 132.856 15.6132 133.082 15.2676C133.32 14.922 133.439 14.4198 133.439 13.761C133.439 13.2318 133.352 12.8214 133.18 12.5298C133.007 12.2382 132.71 12.0924 132.289 12.0924C131.889 12.0924 131.608 12.2436 131.446 12.546C131.295 12.8484 131.209 13.248 131.187 13.7448C131.187 13.7772 131.187 13.8636 131.187 14.004C131.187 14.1444 131.187 14.2794 131.187 14.409H128.676V13.6962C128.676 12.9294 128.822 12.2814 129.113 11.7522C129.416 11.2122 129.837 10.8018 130.377 10.521C130.917 10.2402 131.554 10.0998 132.289 10.0998C133.055 10.0998 133.703 10.2348 134.233 10.5048C134.773 10.7748 135.183 11.169 135.464 11.6874C135.755 12.2058 135.901 12.8484 135.901 13.6152C135.901 14.382 135.739 15.0246 135.415 15.543C135.102 16.0614 134.708 16.3854 134.233 16.515C134.557 16.6338 134.843 16.8174 135.091 17.0658C135.34 17.3034 135.534 17.6274 135.674 18.0378C135.826 18.4482 135.901 18.9612 135.901 19.5768C135.901 20.376 135.782 21.0834 135.545 21.699C135.318 22.3038 134.945 22.779 134.427 23.1246C133.919 23.4594 133.234 23.6268 132.37 23.6268Z" fill="#2C2C2C"/>
<path d="M137.531 23.4V10.278H139.67V18.135L143.137 10.278H144.886V23.4H142.715V15.4134L139.216 23.4H137.531Z" fill="#2C2C2C"/>
<path d="M146.896 23.4V10.278H151.06C151.848 10.278 152.491 10.4292 152.987 10.7316C153.484 11.0232 153.851 11.4498 154.089 12.0114C154.337 12.573 154.462 13.2534 154.462 14.0526C154.462 14.9922 154.3 15.7266 153.976 16.2558C153.662 16.785 153.23 17.163 152.68 17.3898C152.129 17.6058 151.497 17.7138 150.784 17.7138H149.569V23.4H146.896ZM149.569 15.8346H150.509C150.898 15.8346 151.195 15.7752 151.4 15.6564C151.616 15.5268 151.762 15.327 151.837 15.057C151.913 14.787 151.951 14.4414 151.951 14.0202C151.951 13.6206 151.918 13.2858 151.853 13.0158C151.799 12.7458 151.67 12.5352 151.465 12.384C151.259 12.2328 150.935 12.1572 150.493 12.1572H149.569V15.8346Z" fill="#2C2C2C"/>
<path d="M159.496 23.5782C158.535 23.5782 157.773 23.4054 157.212 23.0598C156.65 22.7142 156.245 22.2228 155.997 21.5856C155.759 20.9376 155.64 20.1654 155.64 19.269V14.3766C155.64 13.4802 155.759 12.7134 155.997 12.0762C156.245 11.439 156.65 10.953 157.212 10.6182C157.773 10.2834 158.535 10.116 159.496 10.116C160.468 10.116 161.235 10.2888 161.796 10.6344C162.369 10.9692 162.774 11.4552 163.011 12.0924C163.26 12.7188 163.384 13.4802 163.384 14.3766V19.269C163.384 20.1654 163.26 20.9376 163.011 21.5856C162.774 22.2228 162.369 22.7142 161.796 23.0598C161.235 23.4054 160.468 23.5782 159.496 23.5782ZM159.496 21.6504C159.842 21.6504 160.095 21.5748 160.257 21.4236C160.419 21.2616 160.527 21.051 160.581 20.7918C160.635 20.5218 160.662 20.2356 160.662 19.9332V13.7286C160.662 13.4262 160.635 13.1454 160.581 12.8862C160.527 12.627 160.419 12.4218 160.257 12.2706C160.095 12.1086 159.842 12.0276 159.496 12.0276C159.172 12.0276 158.929 12.1086 158.767 12.2706C158.605 12.4218 158.497 12.627 158.443 12.8862C158.389 13.1454 158.362 13.4262 158.362 13.7286V19.9332C158.362 20.2356 158.384 20.5218 158.427 20.7918C158.481 21.051 158.589 21.2616 158.751 21.4236C158.913 21.5748 159.161 21.6504 159.496 21.6504Z" fill="#2C2C2C"/>
<path d="M165.169 23.4V10.278H168.49C169.062 10.278 169.591 10.3266 170.077 10.4238C170.563 10.521 170.99 10.6938 171.357 10.9422C171.735 11.1906 172.021 11.5362 172.216 11.979C172.421 12.411 172.524 12.978 172.524 13.68C172.524 14.2092 172.448 14.6628 172.297 15.0408C172.146 15.408 171.93 15.6996 171.649 15.9156C171.368 16.1316 171.022 16.2774 170.612 16.353C171.12 16.4286 171.546 16.6014 171.892 16.8714C172.237 17.1414 172.497 17.4978 172.669 17.9406C172.842 18.3834 172.929 18.918 172.929 19.5444C172.929 20.2032 172.842 20.7756 172.669 21.2616C172.507 21.7476 172.264 22.1472 171.94 22.4604C171.616 22.7736 171.217 23.0112 170.742 23.1732C170.266 23.3244 169.716 23.4 169.089 23.4H165.169ZM167.842 21.5208H168.587C169.257 21.5208 169.716 21.3534 169.964 21.0186C170.223 20.6838 170.353 20.1816 170.353 19.512C170.353 18.9936 170.293 18.5832 170.175 18.2808C170.056 17.9676 169.861 17.7408 169.591 17.6004C169.332 17.4492 168.981 17.3736 168.538 17.3736H167.842V21.5208ZM167.842 15.5754H168.506C168.97 15.5754 169.321 15.5106 169.559 15.381C169.797 15.2406 169.959 15.0354 170.045 14.7654C170.142 14.4846 170.191 14.1444 170.191 13.7448C170.191 13.3452 170.121 13.0266 169.98 12.789C169.851 12.5406 169.645 12.3624 169.365 12.2544C169.095 12.1464 168.749 12.0924 168.328 12.0924H167.842V15.5754Z" fill="#2C2C2C"/>
<path d="M173.823 23.4L176.366 10.278H179.331L181.858 23.4H179.38L178.91 20.5164H176.836L176.334 23.4H173.823ZM177.079 18.8802H178.651L177.857 13.5828L177.079 18.8802Z" fill="#2C2C2C"/>
<path d="M183.22 23.4V10.278H185.893V15.6726H188.21V10.278H190.883V23.4H188.21V17.5842H185.893V23.4H183.22Z" fill="#2C2C2C"/>
<path d="M192.934 23.4V10.278H195.607V15.6726H197.924V10.278H200.597V23.4H197.924V17.5842H195.607V23.4H192.934Z" fill="#2C2C2C"/>
<path d="M202.648 23.4V10.278H205.321V15.8022H205.936C206.8 15.8022 207.524 15.9318 208.107 16.191C208.69 16.4502 209.133 16.8606 209.436 17.4222C209.738 17.973 209.889 18.6966 209.889 19.593C209.889 20.3706 209.787 21.0078 209.581 21.5046C209.376 21.9906 209.09 22.374 208.723 22.6548C208.356 22.9356 207.918 23.13 207.411 23.238C206.914 23.346 206.363 23.4 205.758 23.4H202.648ZM205.321 21.6342H205.774C206.174 21.6342 206.493 21.564 206.73 21.4236C206.979 21.2832 207.157 21.0618 207.265 20.7594C207.373 20.4462 207.421 20.0412 207.411 19.5444C207.4 18.972 207.281 18.5184 207.054 18.1836C206.827 17.838 206.39 17.6652 205.742 17.6652H205.321V21.6342ZM211.039 23.4V10.278H213.712V23.4H211.039Z" fill="#2C2C2C"/>
<path d="M215.747 23.4V10.278H217.885V18.135L221.352 10.278H223.102V23.4H220.931V15.4134L217.432 23.4H215.747ZM219.635 9.22501C218.868 9.22501 218.263 9.01441 217.821 8.59321C217.389 8.16121 217.173 7.55641 217.173 6.77881H218.566C218.566 7.16761 218.647 7.46461 218.809 7.66981C218.971 7.86421 219.246 7.96141 219.635 7.96141C220.013 7.96141 220.283 7.85881 220.445 7.65361C220.618 7.44841 220.704 7.15681 220.704 6.77881H222.081C222.081 7.55641 221.865 8.16121 221.433 8.59321C221.001 9.01441 220.402 9.22501 219.635 9.22501Z" fill="#2C2C2C"/>
<path d="M54 45L56.5434 31.878H59.508L62.0352 45H59.5566L59.0868 42.1164H57.0132L56.511 45H54ZM57.2562 40.4802H58.8276L58.0338 35.1828L57.2562 40.4802Z" fill="#2C2C2C"/>
<path d="M63.365 45V31.878H66.686C67.2584 31.878 67.7876 31.9266 68.2736 32.0238C68.7596 32.121 69.1862 32.2938 69.5534 32.5422C69.9314 32.7906 70.2176 33.1362 70.412 33.579C70.6172 34.011 70.7198 34.578 70.7198 35.28C70.7198 35.8092 70.6442 36.2628 70.493 36.6408C70.3418 37.008 70.1258 37.2996 69.845 37.5156C69.5642 37.7316 69.2186 37.8774 68.8082 37.953C69.3158 38.0286 69.7424 38.2014 70.088 38.4714C70.4336 38.7414 70.6928 39.0978 70.8656 39.5406C71.0384 39.9834 71.1248 40.518 71.1248 41.1444C71.1248 41.8032 71.0384 42.3756 70.8656 42.8616C70.7036 43.3476 70.4606 43.7472 70.1366 44.0604C69.8126 44.3736 69.413 44.6112 68.9378 44.7732C68.4626 44.9244 67.9118 45 67.2854 45H63.365ZM66.038 43.1208H66.7832C67.4528 43.1208 67.9118 42.9534 68.1602 42.6186C68.4194 42.2838 68.549 41.7816 68.549 41.112C68.549 40.5936 68.4896 40.1832 68.3708 39.8808C68.252 39.5676 68.0576 39.3408 67.7876 39.2004C67.5284 39.0492 67.1774 38.9736 66.7346 38.9736H66.038V43.1208ZM66.038 37.1754H66.7022C67.1666 37.1754 67.5176 37.1106 67.7552 36.981C67.9928 36.8406 68.1548 36.6354 68.2412 36.3654C68.3384 36.0846 68.387 35.7444 68.387 35.3448C68.387 34.9452 68.3168 34.6266 68.1764 34.389C68.0468 34.1406 67.8416 33.9624 67.5608 33.8544C67.2908 33.7464 66.9452 33.6924 66.524 33.6924H66.038V37.1754Z" fill="#2C2C2C"/>
<path d="M73.8985 45V33.8706H71.8735V31.878H78.5803V33.8706H76.5877V45H73.8985Z" fill="#2C2C2C"/>
<path d="M83.4319 45.1782C82.4707 45.1782 81.7093 45.0054 81.1477 44.6598C80.5861 44.3142 80.1811 43.8228 79.9327 43.1856C79.6951 42.5376 79.5763 41.7654 79.5763 40.869V35.9766C79.5763 35.0802 79.6951 34.3134 79.9327 33.6762C80.1811 33.039 80.5861 32.553 81.1477 32.2182C81.7093 31.8834 82.4707 31.716 83.4319 31.716C84.4039 31.716 85.1707 31.8888 85.7323 32.2344C86.3047 32.5692 86.7097 33.0552 86.9473 33.6924C87.1957 34.3188 87.3199 35.0802 87.3199 35.9766V40.869C87.3199 41.7654 87.1957 42.5376 86.9473 43.1856C86.7097 43.8228 86.3047 44.3142 85.7323 44.6598C85.1707 45.0054 84.4039 45.1782 83.4319 45.1782ZM83.4319 43.2504C83.7775 43.2504 84.0313 43.1748 84.1933 43.0236C84.3553 42.8616 84.4633 42.651 84.5173 42.3918C84.5713 42.1218 84.5983 41.8356 84.5983 41.5332V35.3286C84.5983 35.0262 84.5713 34.7454 84.5173 34.4862C84.4633 34.227 84.3553 34.0218 84.1933 33.8706C84.0313 33.7086 83.7775 33.6276 83.4319 33.6276C83.1079 33.6276 82.8649 33.7086 82.7029 33.8706C82.5409 34.0218 82.4329 34.227 82.3789 34.4862C82.3249 34.7454 82.2979 35.0262 82.2979 35.3286V41.5332C82.2979 41.8356 82.3195 42.1218 82.3627 42.3918C82.4167 42.651 82.5247 42.8616 82.6867 43.0236C82.8487 43.1748 83.0971 43.2504 83.4319 43.2504Z" fill="#2C2C2C"/>
<path d="M96.7024 47.7378L96.3784 45H89.137V31.878H91.81V43.1856H94.3372V31.878H97.0102V43.1856H98.6788V47.7378H96.7024Z" fill="#2C2C2C"/>
<path d="M99.989 45V31.878H105.708V33.7248H102.662V37.2078H105.011V39.0708H102.662V43.1856H105.74V45H99.989Z" fill="#2C2C2C"/>
<path d="M107.125 45V31.878H109.798V37.2726H112.114V31.878H114.787V45H112.114V39.1842H109.798V45H107.125Z" fill="#2C2C2C"/>
<path d="M118.037 45V33.8706H116.012V31.878H122.719V33.8706H120.726V45H118.037Z" fill="#2C2C2C"/>
<path d="M123.909 45V31.878H128.073C128.861 31.878 129.504 32.0292 130.001 32.3316C130.497 32.6232 130.865 33.0498 131.102 33.6114C131.351 34.173 131.475 34.8534 131.475 35.6526C131.475 36.5922 131.313 37.3266 130.989 37.8558C130.676 38.385 130.244 38.763 129.693 38.9898C129.142 39.2058 128.51 39.3138 127.797 39.3138H126.582V45H123.909ZM126.582 37.4346H127.522C127.911 37.4346 128.208 37.3752 128.413 37.2564C128.629 37.1268 128.775 36.927 128.85 36.657C128.926 36.387 128.964 36.0414 128.964 35.6202C128.964 35.2206 128.931 34.8858 128.867 34.6158C128.813 34.3458 128.683 34.1352 128.478 33.984C128.273 33.8328 127.949 33.7572 127.506 33.7572H126.582V37.4346Z" fill="#2C2C2C"/>
<path d="M132.621 45V42.6186H134.954V45H132.621Z" fill="#2C2C2C"/>
<circle cx="22.5" cy="27" r="22.5" fill="#FEC110"/>
<g clip-path="url(#clip0_73_2578)">
<path d="M-38.0672 26.2768V20.3313L-38.9563 17.942L-37.7338 18.2754L-36.567 20.3313L-32.3996 20.7758L-29.2324 20.3313C-29.2324 20.3313 -16.3965 14.1636 -3.5617 14.1636C3.16166 14.1636 6.82375 14.5301 10.2517 15.7306C12.0073 16.3474 13.7023 17.1753 15.7194 18.2866L15.7199 18.2917C17.4536 19.2475 19.4208 20.4144 21.8657 21.8203L22.3989 22.1261C22.5768 22.2317 22.7603 22.3316 22.9433 22.4371C23.2212 22.5982 30.9445 22.5482 36.7789 23.4928C42.6132 24.4374 46.336 26.7711 46.336 26.7711L47.1139 28.6604L47.8362 29.3271L47.2806 34.7725L48.7808 36.6618H38.8398V31.6666C38.8398 27.616 35.5559 24.3265 31.4997 24.3265C27.4435 24.3265 24.1596 27.6104 24.1596 31.6666V36.6618H-10.5638V31.6666C-10.5638 27.616 -13.8477 24.3265 -17.9039 24.3265C-21.9545 24.3265 -25.244 27.6104 -25.244 31.6666V35.6285L-39.5742 33.2779V27.6103L-38.0672 26.2768ZM18.8151 33.4446C19.254 33.4446 19.643 33.1612 19.7878 32.7447L21.4104 27.8825C21.5103 27.5767 21.3492 27.2433 21.0383 27.1378C20.9771 27.1153 20.9159 27.1097 20.8547 27.1097L19.8877 27.1102L18.1096 33.4446L18.8151 33.4446ZM-2.6717 22.7206L16.7206 23.4985V21.3316C16.7206 21.3316 10.0528 16.4975 3.71797 16.4975H-3.78317L-2.6717 22.7206ZM-18.119 22.3872H-6.61659V16.4974C-11.2285 16.4974 -19.2858 19.9979 -19.2858 19.9979L-18.119 22.3872Z" fill="#2C2C2C"/>
<path d="M34.2076 31.6717L34.7796 31.6829V31.6661C34.7796 31.2384 34.696 30.8158 34.5349 30.4156L33.4068 30.8826C33.5067 31.1273 33.5623 31.3939 33.5623 31.6605V31.6717L34.2076 31.6717Z" fill="#2C2C2C"/>
<path d="M33.4011 32.4547C33.2956 32.705 33.1457 32.9324 32.9566 33.1215L33.8181 33.9881C34.124 33.6822 34.3625 33.3213 34.5292 32.9268L33.4011 32.4547Z" fill="#2C2C2C"/>
<path d="M32.9561 30.2152L33.8227 29.3537C33.5168 29.0478 33.1615 28.8037 32.7614 28.637L32.2888 29.7651C32.5396 29.8711 32.767 30.0266 32.9561 30.2152Z" fill="#2C2C2C"/>
<path d="M31.501 33.7219V34.9443C31.9287 34.9443 32.3569 34.8607 32.7515 34.694L32.2845 33.5659C32.0347 33.6719 31.7676 33.7219 31.501 33.7219Z" fill="#2C2C2C"/>
<path d="M30.1112 31.6664C30.1112 32.4336 30.7331 33.0556 31.5004 33.0556C32.2676 33.0556 32.8896 32.4337 32.8896 31.6664C32.8896 30.8991 32.2677 30.2772 31.5004 30.2772C30.7332 30.2772 30.1112 30.8991 30.1112 31.6664Z" fill="#2C2C2C"/>
<path d="M31.5011 29.6098H31.5067V28.3874H31.5011C31.0734 28.3874 30.6508 28.471 30.2562 28.632L30.7232 29.7658C30.9678 29.6597 31.2345 29.6098 31.5011 29.6098Z" fill="#2C2C2C"/>
<path d="M30.0446 33.1214L29.178 33.9829C29.4839 34.2887 29.8448 34.5273 30.2394 34.694L30.7063 33.5659C30.4616 33.4604 30.2394 33.3105 30.0446 33.1214Z" fill="#2C2C2C"/>
<path d="M29.1899 29.3383C28.8841 29.6386 28.6399 29.9995 28.4732 30.3997L29.6013 30.8722C29.7068 30.6219 29.8567 30.3997 30.0514 30.2054L29.1899 29.3383Z" fill="#2C2C2C"/>
<path d="M29.4444 31.6547H28.222V31.6659C28.222 32.0936 28.3056 32.5218 28.4723 32.9215L29.6004 32.4545C29.4949 32.2042 29.4449 31.9376 29.4449 31.671L29.4444 31.6547Z" fill="#2C2C2C"/>
<path d="M31.5011 24.9979C35.1851 24.9979 38.1688 27.9815 38.1688 31.6656C38.1688 35.3496 35.1852 38.3334 31.5011 38.3334C27.8169 38.3334 24.8333 35.3498 24.8333 31.6656C24.8333 27.9816 27.8169 24.9979 31.5011 24.9979ZM31.5011 35.3328C33.5294 35.3328 35.1684 33.6935 35.1684 31.6655C35.1684 29.6371 33.529 27.9982 31.5011 27.9982C29.4727 27.9982 27.8338 29.6375 27.8338 31.6655C27.8338 33.6939 29.4731 35.3328 31.5011 35.3328Z" fill="#2C2C2C"/>
<path d="M34.2076 31.6717L34.7796 31.6829V31.6661C34.7796 31.2384 34.696 30.8158 34.5349 30.4156L33.4068 30.8826C33.5067 31.1273 33.5623 31.3939 33.5623 31.6605V31.6717L34.2076 31.6717Z" fill="#2C2C2C"/>
<path d="M33.4011 32.4547C33.2956 32.705 33.1457 32.9324 32.9566 33.1215L33.8181 33.9881C34.124 33.6822 34.3625 33.3213 34.5292 32.9268L33.4011 32.4547Z" fill="#2C2C2C"/>
<path d="M32.9561 30.2152L33.8227 29.3537C33.5168 29.0478 33.1615 28.8037 32.7614 28.637L32.2888 29.7651C32.5396 29.8711 32.767 30.0266 32.9561 30.2152Z" fill="#2C2C2C"/>
<path d="M31.501 33.7219V34.9443C31.9287 34.9443 32.3569 34.8607 32.7515 34.694L32.2845 33.5659C32.0347 33.6719 31.7676 33.7219 31.501 33.7219Z" fill="#2C2C2C"/>
<path d="M30.1112 31.6664C30.1112 32.4336 30.7331 33.0556 31.5004 33.0556C32.2676 33.0556 32.8896 32.4337 32.8896 31.6664C32.8896 30.8991 32.2677 30.2772 31.5004 30.2772C30.7332 30.2772 30.1112 30.8991 30.1112 31.6664Z" fill="#2C2C2C"/>
<path d="M31.5011 29.6098H31.5067V28.3874H31.5011C31.0734 28.3874 30.6508 28.471 30.2562 28.632L30.7232 29.7658C30.9678 29.6597 31.2345 29.6098 31.5011 29.6098Z" fill="#2C2C2C"/>
<path d="M30.0446 33.1214L29.178 33.9829C29.4839 34.2887 29.8448 34.5273 30.2394 34.694L30.7063 33.5659C30.4616 33.4604 30.2394 33.3105 30.0446 33.1214Z" fill="#2C2C2C"/>
<path d="M29.6062 30.8717C29.7117 30.6214 29.8616 30.3991 30.0563 30.2049L29.1948 29.3383C28.8889 29.6386 28.6448 29.9995 28.4781 30.3997L29.6062 30.8717Z" fill="#2C2C2C"/>
<path d="M28.2229 31.6547V31.6659C28.2229 32.0936 28.3065 32.5218 28.4732 32.9215L29.6013 32.4545C29.4958 32.2042 29.4458 31.9376 29.4458 31.671V31.6598H28.2229V31.6547Z" fill="#2C2C2C"/>
<path d="M30.1112 31.6664C30.1112 32.4336 30.7331 33.0556 31.5004 33.0556C32.2676 33.0556 32.8896 32.4337 32.8896 31.6664C32.8896 30.8991 32.2677 30.2772 31.5004 30.2772C30.7332 30.2772 30.1112 30.8991 30.1112 31.6664Z" fill="#2C2C2C"/>
<path d="M31.501 33.7219C31.7676 33.7219 32.0347 33.6719 32.2845 33.5659L32.7515 34.694C32.3569 34.8551 31.9292 34.9443 31.501 34.9443V33.7219ZM30.0446 33.1214C30.2338 33.3105 30.4622 33.4664 30.712 33.5663L30.245 34.6944C29.8505 34.5277 29.4895 34.2886 29.1837 33.9833L30.0446 33.1214ZM33.4011 32.4547L34.5292 32.9268C34.3625 33.3213 34.124 33.6822 33.8181 33.9881L32.9566 33.1215C33.1457 32.9324 33.2956 32.705 33.4011 32.4547ZM29.4453 31.6664C29.4453 31.9386 29.4952 32.2052 29.6008 32.4499L28.4727 32.9168C28.306 32.5167 28.2224 32.0946 28.2224 31.6613V31.6501L29.4453 31.6495V31.6664ZM34.5353 30.4215C34.6964 30.8161 34.78 31.2438 34.78 31.672V31.6888L34.2075 31.6776L33.5571 31.6771V31.6659C33.5571 31.3993 33.5071 31.1378 33.4016 30.888L34.5353 30.4215ZM29.1899 29.3383L30.0514 30.2044C29.8567 30.3935 29.7068 30.6214 29.6013 30.8711L28.4732 30.3986C28.645 30.0045 28.8841 29.6442 29.1899 29.3383ZM32.7629 28.6435C33.1574 28.8102 33.5183 29.0548 33.8242 29.3602L32.9576 30.2217C32.7685 30.0326 32.5406 29.8771 32.2908 29.7716L32.7629 28.6435ZM31.5011 28.3874H31.5067V29.6098H31.5011C31.2345 29.6098 30.9678 29.6597 30.7232 29.7658L30.2562 28.632C30.6508 28.471 31.0734 28.3874 31.5011 28.3874Z" fill="#2C2C2C"/>
<path d="M-15.1918 31.6717L-14.6194 31.6829V31.6661C-14.6194 31.2384 -14.703 30.8158 -14.8641 30.4156L-15.9922 30.8826C-15.8923 31.1273 -15.8367 31.3939 -15.8367 31.6605V31.6717L-15.1918 31.6717Z" fill="#2C2C2C"/>
<path d="M-15.997 32.4547C-16.1026 32.705 -16.2524 32.9324 -16.4472 33.1215L-15.5857 33.9881C-15.2798 33.6822 -15.0412 33.3213 -14.8745 32.9268L-15.997 32.4547Z" fill="#2C2C2C"/>
<path d="M-16.4407 30.2152L-15.5741 29.3537C-15.88 29.0478 -16.2353 28.8037 -16.6355 28.637L-17.108 29.7651C-16.8577 29.8711 -16.6299 30.0266 -16.4407 30.2152Z" fill="#2C2C2C"/>
<path d="M-17.8971 33.7219L-17.9027 34.9443H-17.8971C-17.4694 34.9443 -17.0412 34.8607 -16.6467 34.694L-17.1136 33.5659C-17.3639 33.6719 -17.6305 33.7219 -17.8971 33.7219Z" fill="#2C2C2C"/>
<path d="M-19.2869 31.6664C-19.2869 32.4336 -18.665 33.0556 -17.8978 33.0556C-17.1305 33.0556 -16.5086 32.4337 -16.5086 31.6664C-16.5086 30.8991 -17.1305 30.2772 -17.8978 30.2772C-18.665 30.2772 -19.2869 30.8991 -19.2869 31.6664Z" fill="#2C2C2C"/>
<path d="M-17.8971 29.6098H-17.8859V28.3874H-17.8971C-18.3248 28.3874 -18.7474 28.471 -19.1419 28.632L-18.6806 29.7658C-18.4303 29.6597 -18.1637 29.6098 -17.8971 29.6098Z" fill="#2C2C2C"/>
<path d="M-19.3535 33.1214L-20.2201 33.9829C-19.9142 34.2887 -19.5533 34.5273 -19.1588 34.694L-18.6918 33.5659C-18.9365 33.4604 -19.1588 33.3105 -19.3535 33.1214Z" fill="#2C2C2C"/>
<path d="M-20.2083 29.3383C-20.5141 29.6386 -20.7583 29.9995 -20.925 30.3997L-19.7969 30.8722C-19.6914 30.6219 -19.5415 30.3997 -19.3468 30.2054L-20.2083 29.3383Z" fill="#2C2C2C"/>
<path d="M-19.9525 31.6547H-21.1749V31.6659C-21.1749 32.0936 -21.0913 32.5218 -20.9246 32.9215L-19.7965 32.4545C-19.902 32.2042 -19.952 31.9376 -19.952 31.671L-19.9525 31.6547Z" fill="#2C2C2C"/>
<path d="M-17.8971 24.9979C-14.2131 24.9979 -11.2294 27.9815 -11.2294 31.6656C-11.2294 35.3496 -14.213 38.3334 -17.8971 38.3334C-21.5813 38.3334 -24.5649 35.3498 -24.5649 31.6656C-24.5649 27.9816 -21.5813 24.9979 -17.8971 24.9979ZM-17.8971 35.3328C-15.8688 35.3328 -14.2298 33.6935 -14.2298 31.6655C-14.2298 29.6371 -15.8691 27.9982 -17.8971 27.9982C-19.9255 27.9982 -21.5644 29.6375 -21.5644 31.6655C-21.5644 33.6939 -19.9255 35.3328 -17.8971 35.3328Z" fill="#2C2C2C"/>
<path d="M-15.1918 31.6717L-14.6194 31.6829V31.6661C-14.6194 31.2384 -14.703 30.8158 -14.8641 30.4156L-15.9922 30.8826C-15.8923 31.1273 -15.8367 31.3939 -15.8367 31.6605V31.6717L-15.1918 31.6717Z" fill="#2C2C2C"/>
<path d="M-15.997 32.4547C-16.1026 32.705 -16.2524 32.9324 -16.4472 33.1215L-15.5857 33.9881C-15.2798 33.6822 -15.0412 33.3213 -14.8745 32.9268L-15.997 32.4547Z" fill="#2C2C2C"/>
<path d="M-16.4407 30.2152L-15.5741 29.3537C-15.88 29.0478 -16.2353 28.8037 -16.6355 28.637L-17.108 29.7651C-16.8577 29.8711 -16.6299 30.0266 -16.4407 30.2152Z" fill="#2C2C2C"/>
<path d="M-17.8971 33.7219L-17.9027 34.9443H-17.8971C-17.4694 34.9443 -17.0412 34.8607 -16.6467 34.694L-17.1136 33.5659C-17.3639 33.6719 -17.6305 33.7219 -17.8971 33.7219Z" fill="#2C2C2C"/>
<path d="M-19.2869 31.6664C-19.2869 32.4336 -18.665 33.0556 -17.8978 33.0556C-17.1305 33.0556 -16.5086 32.4337 -16.5086 31.6664C-16.5086 30.8991 -17.1305 30.2772 -17.8978 30.2772C-18.665 30.2772 -19.2869 30.8991 -19.2869 31.6664Z" fill="#2C2C2C"/>
<path d="M-17.8971 29.6098H-17.8859V28.3874H-17.8971C-18.3248 28.3874 -18.7474 28.471 -19.1419 28.632L-18.6806 29.7658C-18.4303 29.6597 -18.1637 29.6098 -17.8971 29.6098Z" fill="#2C2C2C"/>
<path d="M-19.3535 33.1214L-20.2201 33.9829C-19.9142 34.2887 -19.5533 34.5273 -19.1588 34.694L-18.6918 33.5659C-18.9365 33.4604 -19.1588 33.3105 -19.3535 33.1214Z" fill="#2C2C2C"/>
<path d="M-19.792 30.8717C-19.6864 30.6214 -19.5366 30.3991 -19.3418 30.2049L-20.2034 29.3383C-20.5092 29.6386 -20.7534 29.9995 -20.9201 30.3997L-19.792 30.8717Z" fill="#2C2C2C"/>
<path d="M-21.1749 31.6547V31.6659C-21.1749 32.0936 -21.0913 32.5218 -20.9246 32.9215L-19.7965 32.4545C-19.902 32.2042 -19.952 31.9376 -19.952 31.671L-19.9524 31.6598H-21.1753L-21.1749 31.6547Z" fill="#2C2C2C"/>
<path d="M-19.2869 31.6664C-19.2869 32.4336 -18.665 33.0556 -17.8978 33.0556C-17.1305 33.0556 -16.5086 32.4337 -16.5086 31.6664C-16.5086 30.8991 -17.1305 30.2772 -17.8978 30.2772C-18.665 30.2772 -19.2869 30.8991 -19.2869 31.6664Z" fill="#2C2C2C"/>
<path d="M-17.8971 33.7219C-17.6305 33.7219 -17.3639 33.6719 -17.1136 33.5659L-16.6467 34.694C-17.0412 34.8551 -17.4689 34.9443 -17.8971 34.9443H-17.9027L-17.8971 33.7219ZM-19.3535 33.1214C-19.1644 33.3105 -18.936 33.4664 -18.6862 33.5663L-19.1531 34.6944C-19.5477 34.5277 -19.9086 34.2886 -20.2145 33.9833L-19.3535 33.1214ZM-15.997 32.4547L-14.8685 32.9275C-15.0352 33.3221 -15.2743 33.683 -15.5797 33.9889L-16.4412 33.1223C-16.252 32.9332 -16.1026 32.705 -15.997 32.4547ZM-19.9525 31.6547L-19.9529 31.6664C-19.9529 31.9386 -19.9029 32.2052 -19.7974 32.4499L-20.9255 32.9168C-21.0922 32.5167 -21.1758 32.0946 -21.1758 31.6613V31.6501L-19.9529 31.6495L-19.9525 31.6547ZM-14.8629 30.4215C-14.7018 30.8161 -14.6182 31.2438 -14.6182 31.672V31.6888L-15.1906 31.6776H-15.8406V31.6664C-15.8406 31.3998 -15.8905 31.1383 -15.9961 30.8885L-14.8629 30.4215ZM-20.2083 29.3383L-19.3468 30.2044C-19.5415 30.3935 -19.6914 30.6214 -19.7969 30.8711L-20.925 30.3986C-20.7532 30.0045 -20.5141 29.6442 -20.2083 29.3383ZM-16.6358 28.6435C-16.2413 28.8102 -15.8803 29.0548 -15.5745 29.3602L-16.4411 30.2217C-16.6302 30.0326 -16.8581 29.8771 -17.1079 29.7716L-16.6358 28.6435ZM-17.8971 28.3874H-17.8859V29.6098H-17.8971C-18.1637 29.6098 -18.4303 29.6597 -18.6806 29.7658L-19.1419 28.632C-18.7474 28.471 -18.3248 28.3874 -17.8971 28.3874Z" fill="#2C2C2C"/>
</g>
<defs>
<clipPath id="clip0_73_2578">
<rect y="4.5" width="45" height="45" rx="22.5" fill="white"/>
</clipPath>
</defs>
</svg>
