<svg width="50" height="50" viewBox="0 0 50 50" fill="none" xmlns="http://www.w3.org/2000/svg">
<circle cx="25" cy="25" r="25" fill="#FEC110"/>
<g clip-path="url(#clip0_34_661)">
<path d="M-42.2953 24.1966V17.5906L-43.2831 14.9358L-41.9249 15.3062L-40.6284 17.5905L-35.9979 18.0844L-32.4788 17.5905C-32.4788 17.5905 -18.2167 10.7375 -3.95582 10.7375C3.51458 10.7375 7.58357 11.1448 11.3924 12.4787C13.3431 13.1641 15.2264 14.0839 17.4676 15.3187L17.4682 15.3243C19.3945 16.3864 21.5803 17.6829 24.2968 19.245L24.8893 19.5848C25.087 19.7021 25.2909 19.8131 25.4942 19.9304C25.8029 20.1093 34.3845 20.0538 40.8671 21.1034C47.3496 22.1529 51.486 24.7459 51.486 24.7459L52.3504 26.8451L53.153 27.5859L52.5356 33.6364L54.2025 35.7355H43.157V30.1854C43.157 25.6847 39.5082 22.0297 35.0013 22.0297C30.4944 22.0297 26.8457 25.6785 26.8457 30.1854V35.7355H-11.7359V30.1854C-11.7359 25.6847 -15.3847 22.0297 -19.8916 22.0297C-24.3923 22.0297 -28.0473 25.6785 -28.0473 30.1854V34.5874L-43.9697 31.9757V25.6783L-42.2953 24.1966ZM20.9073 32.1609C21.395 32.1609 21.8272 31.846 21.988 31.3832L23.7909 25.9808C23.902 25.641 23.723 25.2706 23.3775 25.1533C23.3095 25.1284 23.2415 25.1222 23.1736 25.1222L22.0991 25.1227L20.1235 32.1609L20.9073 32.1609ZM-2.96693 20.2454L18.5801 21.1097V18.702C18.5801 18.702 11.1714 13.3308 4.1327 13.3308H-4.2019L-2.96693 20.2454ZM-20.1306 19.875H-7.35014V13.3307C-12.4744 13.3307 -21.427 17.2202 -21.427 17.2202L-20.1306 19.875Z" fill="#2C2C2C"/>
<path d="M38.0101 30.191L38.6456 30.2035V30.1848C38.6456 29.7096 38.5527 29.24 38.3738 28.7954L37.1203 29.3142C37.2313 29.5861 37.2931 29.8823 37.2931 30.1786V30.191L38.0101 30.191Z" fill="#2C2C2C"/>
<path d="M37.114 31.061C36.9967 31.3391 36.8302 31.5918 36.6201 31.8019L37.5773 32.7648C37.9172 32.4249 38.1822 32.0239 38.3674 31.5855L37.114 31.061Z" fill="#2C2C2C"/>
<path d="M36.6195 28.5727L37.5824 27.6155C37.2426 27.2756 36.8478 27.0043 36.4031 26.8191L35.8781 28.0725C36.1568 28.1904 36.4094 28.3631 36.6195 28.5727Z" fill="#2C2C2C"/>
<path d="M35.0028 32.469V33.8272C35.478 33.8272 35.9538 33.7343 36.3922 33.5491L35.8733 32.2957C35.5958 32.4135 35.299 32.469 35.0028 32.469Z" fill="#2C2C2C"/>
<path d="M33.4585 30.1851C33.4585 31.0376 34.1496 31.7286 35.0021 31.7286C35.8545 31.7286 36.5456 31.0376 36.5456 30.1851C36.5456 29.3326 35.8546 28.6416 35.0021 28.6416C34.1496 28.6416 33.4585 29.3326 33.4585 30.1851Z" fill="#2C2C2C"/>
<path d="M35.0028 27.9H35.009V26.5417H35.0028C34.5276 26.5417 34.058 26.6346 33.6196 26.8136L34.1385 28.0733C34.4103 27.9555 34.7066 27.9 35.0028 27.9Z" fill="#2C2C2C"/>
<path d="M33.3846 31.8018L32.4217 32.759C32.7615 33.0988 33.1625 33.3639 33.6009 33.5491L34.1198 32.2957C33.8479 32.1784 33.6009 32.0119 33.3846 31.8018Z" fill="#2C2C2C"/>
<path d="M32.4349 27.5984C32.095 27.932 31.8237 28.333 31.6385 28.7776L32.892 29.3027C33.0092 29.0246 33.1757 28.7776 33.3921 28.5618L32.4349 27.5984Z" fill="#2C2C2C"/>
<path d="M32.7176 30.1721H31.3594V30.1846C31.3594 30.6598 31.4523 31.1356 31.6375 31.5796L32.8909 31.0608C32.7737 30.7827 32.7182 30.4865 32.7182 30.1902L32.7176 30.1721Z" fill="#2C2C2C"/>
<path d="M35.0028 22.7756C39.0962 22.7756 42.4114 26.0908 42.4114 30.1843C42.4114 34.2776 39.0963 37.5929 35.0028 37.5929C30.9093 37.5929 27.5942 34.2778 27.5942 30.1843C27.5942 26.0909 30.9093 22.7756 35.0028 22.7756ZM35.0028 34.2589C37.2565 34.2589 39.0776 32.4374 39.0776 30.1841C39.0776 27.9304 37.2561 26.1093 35.0028 26.1093C32.7491 26.1093 30.928 27.9308 30.928 30.1841C30.928 32.4379 32.7495 34.2589 35.0028 34.2589Z" fill="#2C2C2C"/>
<path d="M38.0101 30.191L38.6456 30.2035V30.1848C38.6456 29.7096 38.5527 29.24 38.3738 28.7954L37.1203 29.3142C37.2313 29.5861 37.2931 29.8823 37.2931 30.1786V30.191L38.0101 30.191Z" fill="#2C2C2C"/>
<path d="M37.114 31.061C36.9967 31.3391 36.8302 31.5918 36.6201 31.8019L37.5773 32.7648C37.9172 32.4249 38.1822 32.0239 38.3674 31.5855L37.114 31.061Z" fill="#2C2C2C"/>
<path d="M36.6195 28.5727L37.5824 27.6155C37.2426 27.2756 36.8478 27.0043 36.4031 26.8191L35.8781 28.0725C36.1568 28.1904 36.4094 28.3631 36.6195 28.5727Z" fill="#2C2C2C"/>
<path d="M35.0028 32.469V33.8272C35.478 33.8272 35.9538 33.7343 36.3922 33.5491L35.8733 32.2957C35.5958 32.4135 35.299 32.469 35.0028 32.469Z" fill="#2C2C2C"/>
<path d="M33.4585 30.1851C33.4585 31.0376 34.1496 31.7286 35.0021 31.7286C35.8545 31.7286 36.5456 31.0376 36.5456 30.1851C36.5456 29.3326 35.8546 28.6416 35.0021 28.6416C34.1496 28.6416 33.4585 29.3326 33.4585 30.1851Z" fill="#2C2C2C"/>
<path d="M35.0028 27.9H35.009V26.5417H35.0028C34.5276 26.5417 34.058 26.6346 33.6196 26.8136L34.1385 28.0733C34.4103 27.9555 34.7066 27.9 35.0028 27.9Z" fill="#2C2C2C"/>
<path d="M33.3846 31.8018L32.4217 32.759C32.7615 33.0988 33.1625 33.3639 33.6009 33.5491L34.1198 32.2957C33.8479 32.1784 33.6009 32.0119 33.3846 31.8018Z" fill="#2C2C2C"/>
<path d="M32.8974 29.3021C33.0146 29.024 33.1812 28.7771 33.3975 28.5613L32.4403 27.5984C32.1004 27.932 31.8292 28.333 31.6439 28.7776L32.8974 29.3021Z" fill="#2C2C2C"/>
<path d="M31.3604 30.1721V30.1846C31.3604 30.6598 31.4533 31.1356 31.6385 31.5796L32.892 31.0608C32.7747 30.7827 32.7192 30.4865 32.7192 30.1902V30.1778H31.3604V30.1721Z" fill="#2C2C2C"/>
<path d="M33.4585 30.1851C33.4585 31.0376 34.1496 31.7286 35.0021 31.7286C35.8545 31.7286 36.5456 31.0376 36.5456 30.1851C36.5456 29.3326 35.8546 28.6416 35.0021 28.6416C34.1496 28.6416 33.4585 29.3326 33.4585 30.1851Z" fill="#2C2C2C"/>
<path d="M35.0028 32.469C35.299 32.469 35.5958 32.4135 35.8733 32.2957L36.3922 33.5491C35.9538 33.7281 35.4785 33.8272 35.0028 33.8272V32.469ZM33.3846 31.8018C33.5947 32.0119 33.8485 32.1851 34.126 32.2961L33.6072 33.5496C33.1688 33.3643 32.7678 33.0987 32.428 32.7594L33.3846 31.8018ZM37.114 31.061L38.3674 31.5855C38.1822 32.0239 37.9172 32.4249 37.5773 32.7648L36.6201 31.8019C36.8302 31.5918 36.9967 31.3391 37.114 31.061ZM32.7186 30.1851C32.7186 30.4876 32.7741 30.7838 32.8914 31.0557L31.6379 31.5745C31.4527 31.1299 31.3598 30.6609 31.3598 30.1794V30.167L32.7186 30.1664V30.1851ZM38.3742 28.802C38.5532 29.2403 38.6461 29.7156 38.6461 30.1913V30.21L38.01 30.1976L37.2873 30.197V30.1845C37.2873 29.8883 37.2317 29.5977 37.1145 29.3202L38.3742 28.802ZM32.4349 27.5984L33.3921 28.5607C33.1757 28.7708 33.0092 29.024 32.8919 29.3015L31.6385 28.7765C31.8294 28.3386 32.095 27.9382 32.4349 27.5984ZM36.4048 26.8263C36.8432 27.0115 37.2442 27.2834 37.5841 27.6227L36.6212 28.5799C36.411 28.3698 36.1578 28.197 35.8803 28.0798L36.4048 26.8263ZM35.0028 26.5417H35.009V27.9H35.0028C34.7066 27.9 34.4103 27.9555 34.1385 28.0733L33.6196 26.8136C34.058 26.6346 34.5276 26.5417 35.0028 26.5417Z" fill="#2C2C2C"/>
<path d="M-16.8782 30.191L-16.2421 30.2035V30.1848C-16.2421 29.7096 -16.335 29.24 -16.514 28.7954L-17.7674 29.3142C-17.6564 29.5861 -17.5947 29.8823 -17.5947 30.1786V30.191L-16.8782 30.191Z" fill="#2C2C2C"/>
<path d="M-17.7729 31.061C-17.8901 31.3391 -18.0566 31.5918 -18.273 31.8019L-17.3158 32.7648C-16.9759 32.4249 -16.7108 32.0239 -16.5256 31.5855L-17.7729 31.061Z" fill="#2C2C2C"/>
<path d="M-18.2659 28.5727L-17.303 27.6155C-17.6428 27.2756 -18.0376 27.0043 -18.4822 26.8191L-19.0073 28.0725C-18.7292 28.1904 -18.476 28.3631 -18.2659 28.5727Z" fill="#2C2C2C"/>
<path d="M-19.8841 32.469L-19.8903 33.8272H-19.8841C-19.4089 33.8272 -18.9331 33.7343 -18.4947 33.5491L-19.0135 32.2957C-19.2916 32.4135 -19.5878 32.469 -19.8841 32.469Z" fill="#2C2C2C"/>
<path d="M-21.4283 30.1851C-21.4283 31.0376 -20.7373 31.7286 -19.8848 31.7286C-19.0323 31.7286 -18.3412 31.0376 -18.3412 30.1851C-18.3412 29.3326 -19.0323 28.6416 -19.8848 28.6416C-20.7373 28.6416 -21.4283 29.3326 -21.4283 30.1851Z" fill="#2C2C2C"/>
<path d="M-19.884 27.9H-19.8716V26.5417H-19.884C-20.3592 26.5417 -20.8288 26.6346 -21.2672 26.8136L-20.7546 28.0733C-20.4765 27.9555 -20.1803 27.9 -19.884 27.9Z" fill="#2C2C2C"/>
<path d="M-21.5023 31.8018L-22.4651 32.759C-22.1253 33.0988 -21.7243 33.3639 -21.2859 33.5491L-20.7671 32.2957C-21.0389 32.1784 -21.2859 32.0119 -21.5023 31.8018Z" fill="#2C2C2C"/>
<path d="M-22.452 27.5984C-22.7919 27.932 -23.0632 28.333 -23.2484 28.7776L-21.9949 29.3027C-21.8777 29.0246 -21.7111 28.7776 -21.4948 28.5618L-22.452 27.5984Z" fill="#2C2C2C"/>
<path d="M-22.1678 30.1721H-23.526V30.1846C-23.526 30.6598 -23.4331 31.1356 -23.2479 31.5796L-21.9945 31.0608C-22.1117 30.7827 -22.1673 30.4865 -22.1673 30.1902L-22.1678 30.1721Z" fill="#2C2C2C"/>
<path d="M-19.8841 22.7756C-15.7907 22.7756 -12.4754 26.0908 -12.4754 30.1843C-12.4754 34.2776 -15.7906 37.5929 -19.8841 37.5929C-23.9775 37.5929 -27.2927 34.2778 -27.2927 30.1843C-27.2927 26.0909 -23.9775 22.7756 -19.8841 22.7756ZM-19.8841 34.2589C-17.6303 34.2589 -15.8093 32.4374 -15.8093 30.1841C-15.8093 27.9304 -17.6308 26.1093 -19.8841 26.1093C-22.1378 26.1093 -23.9588 27.9308 -23.9588 30.1841C-23.9588 32.4379 -22.1378 34.2589 -19.8841 34.2589Z" fill="#2C2C2C"/>
<path d="M-16.8782 30.191L-16.2421 30.2035V30.1848C-16.2421 29.7096 -16.335 29.24 -16.514 28.7954L-17.7674 29.3142C-17.6564 29.5861 -17.5947 29.8823 -17.5947 30.1786V30.191L-16.8782 30.191Z" fill="#2C2C2C"/>
<path d="M-17.7729 31.061C-17.8901 31.3391 -18.0566 31.5918 -18.273 31.8019L-17.3158 32.7648C-16.9759 32.4249 -16.7108 32.0239 -16.5256 31.5855L-17.7729 31.061Z" fill="#2C2C2C"/>
<path d="M-18.2659 28.5727L-17.303 27.6155C-17.6428 27.2756 -18.0376 27.0043 -18.4822 26.8191L-19.0073 28.0725C-18.7292 28.1904 -18.476 28.3631 -18.2659 28.5727Z" fill="#2C2C2C"/>
<path d="M-19.8841 32.469L-19.8903 33.8272H-19.8841C-19.4089 33.8272 -18.9331 33.7343 -18.4947 33.5491L-19.0135 32.2957C-19.2916 32.4135 -19.5878 32.469 -19.8841 32.469Z" fill="#2C2C2C"/>
<path d="M-21.4283 30.1851C-21.4283 31.0376 -20.7373 31.7286 -19.8848 31.7286C-19.0323 31.7286 -18.3412 31.0376 -18.3412 30.1851C-18.3412 29.3326 -19.0323 28.6416 -19.8848 28.6416C-20.7373 28.6416 -21.4283 29.3326 -21.4283 30.1851Z" fill="#2C2C2C"/>
<path d="M-19.884 27.9H-19.8716V26.5417H-19.884C-20.3592 26.5417 -20.8288 26.6346 -21.2672 26.8136L-20.7546 28.0733C-20.4765 27.9555 -20.1803 27.9 -19.884 27.9Z" fill="#2C2C2C"/>
<path d="M-21.5023 31.8018L-22.4651 32.759C-22.1253 33.0988 -21.7243 33.3639 -21.2859 33.5491L-20.7671 32.2957C-21.0389 32.1784 -21.2859 32.0119 -21.5023 31.8018Z" fill="#2C2C2C"/>
<path d="M-21.9894 29.3021C-21.8722 29.024 -21.7057 28.7771 -21.4893 28.5613L-22.4465 27.5984C-22.7864 27.932 -23.0577 28.333 -23.2429 28.7776L-21.9894 29.3021Z" fill="#2C2C2C"/>
<path d="M-23.526 30.1721V30.1846C-23.526 30.6598 -23.4331 31.1356 -23.2479 31.5796L-21.9945 31.0608C-22.1117 30.7827 -22.1673 30.4865 -22.1673 30.1902L-22.1677 30.1778H-23.5265L-23.526 30.1721Z" fill="#2C2C2C"/>
<path d="M-21.4283 30.1851C-21.4283 31.0376 -20.7373 31.7286 -19.8848 31.7286C-19.0323 31.7286 -18.3412 31.0376 -18.3412 30.1851C-18.3412 29.3326 -19.0323 28.6416 -19.8848 28.6416C-20.7373 28.6416 -21.4283 29.3326 -21.4283 30.1851Z" fill="#2C2C2C"/>
<path d="M-19.8841 32.469C-19.5878 32.469 -19.2916 32.4135 -19.0135 32.2957L-18.4947 33.5491C-18.9331 33.7281 -19.4083 33.8272 -19.8841 33.8272H-19.8903L-19.8841 32.469ZM-21.5023 31.8018C-21.2921 32.0119 -21.0384 32.1851 -20.7608 32.2961L-21.2796 33.5496C-21.718 33.3643 -22.1191 33.0987 -22.4589 32.7594L-21.5023 31.8018ZM-17.7729 31.061L-16.519 31.5864C-16.7042 32.0248 -16.9698 32.4258 -17.3091 32.7657L-18.2663 31.8028C-18.0562 31.5926 -17.8901 31.3391 -17.7729 31.061ZM-22.1678 30.1721L-22.1682 30.1851C-22.1682 30.4876 -22.1127 30.7838 -21.9955 31.0557L-23.2489 31.5745C-23.4342 31.1299 -23.5271 30.6609 -23.5271 30.1794V30.167L-22.1682 30.1664L-22.1678 30.1721ZM-16.5127 28.802C-16.3337 29.2403 -16.2408 29.7156 -16.2408 30.1913V30.21L-16.8769 30.1976H-17.599V30.1851C-17.599 29.8889 -17.6545 29.5983 -17.7718 29.3208L-16.5127 28.802ZM-22.452 27.5984L-21.4948 28.5607C-21.7111 28.7708 -21.8777 29.024 -21.9949 29.3015L-23.2484 28.7765C-23.0575 28.3386 -22.7919 27.9382 -22.452 27.5984ZM-18.4826 26.8263C-18.0442 27.0115 -17.6432 27.2834 -17.3034 27.6227L-18.2663 28.5799C-18.4764 28.3698 -18.7296 28.197 -19.0071 28.0798L-18.4826 26.8263ZM-19.884 26.5417H-19.8716V27.9H-19.884C-20.1803 27.9 -20.4765 27.9555 -20.7546 28.0733L-21.2672 26.8136C-20.8288 26.6346 -20.3592 26.5417 -19.884 26.5417Z" fill="#2C2C2C"/>
</g>
<defs>
<clipPath id="clip0_34_661">
<rect width="50" height="50" rx="25" fill="white"/>
</clipPath>
</defs>
</svg>
