<svg width="60" height="61" viewBox="0 0 60 61" fill="none" xmlns="http://www.w3.org/2000/svg">
<path d="M30 26.0765C31.8955 26.0765 33.7485 25.5145 35.3245 24.4614C36.9005 23.4083 38.129 21.9115 38.8543 20.1603C39.5798 18.4091 39.7695 16.4821 39.3995 14.6231C39.0297 12.764 38.117 11.0564 36.7765 9.71611C35.4362 8.37584 33.7285 7.46316 31.8695 7.09346C30.0102 6.72379 28.0832 6.91369 26.3322 7.63919C24.581 8.36469 23.0843 9.59319 22.0314 11.1693C20.9785 12.7455 20.4166 14.5984 20.4168 16.4939C20.4199 19.0345 21.4306 21.4701 23.2272 23.2665C25.0237 25.063 27.4595 26.0735 30 26.0765ZM30 9.40969C31.401 9.40964 32.7705 9.82501 33.9352 10.6033C35.1002 11.3816 36.0082 12.4878 36.5445 13.7821C37.0805 15.0764 37.221 16.5006 36.9478 17.8747C36.6745 19.2487 36 20.5109 35.0095 21.5016C34.0188 22.4923 32.7567 23.167 31.3827 23.4405C30.0087 23.7139 28.5845 23.5737 27.29 23.0377C25.9958 22.5017 24.8894 21.5939 24.1109 20.4291C23.3325 19.2643 22.9169 17.8949 22.9168 16.4939C22.9189 14.616 23.6659 12.8156 24.9938 11.4877C26.3218 10.1598 28.122 9.41286 30 9.41069V9.40969ZM49.2675 38.979C45.529 35.238 40.7762 32.6747 35.5965 31.6062L30 40.1912L24.4035 31.6072C19.2239 32.676 14.471 35.239 10.7325 38.98L10 39.7125V52.5015H50V39.7125L49.2675 38.979ZM47.5 50.0015H12.5V40.7587C12.5277 40.7337 12.8 40.464 12.828 40.439C15.7784 37.5752 19.409 35.5097 23.378 34.4362L26.293 38.8445L28.8878 42.7787L30 44.459L31.125 42.764L33.6908 38.8727L36.623 34.4362C40.592 35.5095 44.2227 37.5752 47.173 40.439C47.2012 40.464 47.473 40.7335 47.501 40.7587L47.5 50.0015Z" fill="#FEC110"/>
</svg>
